<?xml version="1.0" encoding="UTF-8"?>
<svg width="134px" height="33px" viewBox="0 0 134 33" version="1.1" xmlns="http://www.w3.org/2000/svg" xmlns:xlink="http://www.w3.org/1999/xlink">
    <!-- Generator: Sketch 42 (36781) - http://www.bohemiancoding.com/sketch -->
    <title>dpunkt</title>
    <desc>Created with Sketch.</desc>
    <defs></defs>
    <g id="start" stroke="none" stroke-width="1" fill="none" fill-rule="evenodd" opacity="0.4">
        <g transform="translate(-976.000000, -3782.000000)" id="footer" fill="#000000">
            <g transform="translate(-439.000000, 3467.000000)">
                <g id="dpunkt" transform="translate(1415.000000, 315.000000)">
                    <path d="M90.6744228,20.1607902 C90.6744228,20.8764047 90.1028855,21.4633302 89.3872656,21.4633302 C88.6730783,21.4633302 88.0850852,20.8764047 88.0850852,20.1607902 C88.0850852,19.4456497 88.6730837,18.8595631 89.3872656,18.8595631 C90.1028801,18.8595631 90.6744228,19.4456551 90.6744228,20.1607902 Z" id="Shape"></path>
                    <path d="M95.3764065,21.2727724 L94.2803192,21.2727724 L91.3100349,13.3785927 L92.454068,13.3785927 L94.4242766,18.9227065 C94.597933,19.4299591 94.7255511,19.8107833 94.8528113,20.2717597 L94.8681971,20.2717597 C94.9955766,19.8433442 95.1385807,19.4144538 95.2967318,18.9705325 L97.3145321,13.3785927 L98.4109735,13.3785927 L95.3764019,21.2727724 L95.3764065,21.2727724 Z" id="Shape"></path>
                    <path d="M105.653553,20.9226837 C104.84288,21.2094072 103.9678,21.3999994 103.048833,21.3999994 C100.71318,21.3999994 99.4584659,20.1287098 99.4584659,17.3497295 C99.4584659,14.9992878 100.728922,13.2515138 102.873984,13.2515138 C105.033476,13.2515138 105.907123,14.7275892 105.907123,16.4277768 C105.907123,16.8418799 105.875994,17.1906236 105.875994,17.1906236 L100.506129,17.1906236 C100.458541,19.5262763 101.379896,20.5584303 103.191598,20.5584303 C103.953372,20.5584303 104.716578,20.4144724 105.494094,20.1287027 L105.653557,20.9226799 L105.653553,20.9226837 Z M104.84288,16.4438808 C104.874964,14.9183072 104.096495,14.0452536 102.809697,14.0452536 C101.634773,14.0452536 100.745264,14.8707154 100.555027,16.4438808 L104.84288,16.4438808 Z" id="Shape"></path>
                    <path d="M111.942837,14.2354846 C110.147597,13.9497154 109.290525,15.3795177 109.290525,18.1286748 L109.290525,21.2727342 L108.289257,21.2727342 L108.289257,13.3778464 L109.306028,13.3778464 C109.306028,13.9336414 109.242696,14.7434807 109.09993,15.4432331 L109.132133,15.4593344 C109.433288,14.2844105 110.259465,13.0446054 111.990424,13.2670454 L111.942835,14.2355114 L111.942837,14.2354846 Z" id="Shape"></path>
                    <path d="M117.046821,21.2727724 C117.046821,21.2727724 116.569506,21.3846471 116.013708,21.3846471 C114.61599,21.3846471 114.059956,20.7491821 114.059956,19.3038722 L114.059956,9.67668036 L115.061224,9.67668036 L115.061224,19.1608844 C115.061224,20.1287566 115.362499,20.5277117 116.188557,20.5277117 C116.617091,20.5277117 117.046821,20.4321767 117.046821,20.4321767 L117.046821,21.2727871 L117.046821,21.2727724 Z" id="Shape"></path>
                    <path d="M123.548545,21.2727724 C123.548545,20.6369478 123.56393,20.0037488 123.643722,19.5430067 L123.611877,19.5253548 C123.230692,20.5584675 122.198776,21.4000311 120.816561,21.4000311 C119.592737,21.4000311 118.671504,20.6227549 118.671504,19.3514598 C118.671504,17.7775808 120.339128,16.6814989 123.532207,16.6814989 L123.532207,16.1575486 C123.532207,14.7755728 123.087929,14.0622244 121.673872,14.0622244 C120.911739,14.0622244 120.005773,14.3005243 119.275125,14.6177796 L119.084533,13.806987 C119.895205,13.4891341 120.831947,13.2513119 121.785384,13.2513119 C123.83431,13.2513119 124.533109,14.332011 124.533109,16.0003491 L124.533109,18.8275095 C124.533109,19.6381822 124.548614,20.5584626 124.565312,21.2727698 L123.54854,21.2727698 L123.548545,21.2727724 Z M123.532205,17.4449425 C120.546538,17.4449425 119.687914,18.3038008 119.687914,19.1919975 C119.688272,19.9859747 120.228562,20.5752806 121.070124,20.5752806 C122.547512,20.5752806 123.532199,19.0810771 123.532199,17.6825202 L123.532199,17.4449354 L123.532205,17.4449425 Z" id="Shape"></path>
                    <path d="M132.424683,14.1725154 C132.853218,14.6485194 133.075656,15.2689568 133.075656,15.9360317 C133.075656,17.5560645 131.99591,18.8419089 129.962727,18.8419089 C129.597166,18.8419089 129.279316,18.7943204 128.977086,18.7169146 C128.580754,18.954738 128.390161,19.2405071 128.390161,19.4932377 C128.390161,19.8905237 128.738905,20.1463569 129.692701,20.1776072 L131.057856,20.2250764 C133.043812,20.2894819 133.933915,21.1785137 133.933915,22.5273326 C133.933915,24.2275148 132.376851,25.3880093 129.962722,25.3880093 C127.929539,25.3880093 126.673632,24.5297447 126.673632,23.0359007 C126.673632,22.0680285 127.325798,21.2740567 128.072183,20.7799236 C127.611565,20.5417429 127.373744,20.1607945 127.373744,19.6690472 C127.373744,19.192924 127.659155,18.7313523 128.198612,18.3822496 C127.404634,17.8740431 127.039076,17.0311646 127.039076,16.1581165 C127.039076,14.5534665 128.135517,13.2505671 130.153318,13.2505671 C130.502061,13.2505671 130.852117,13.2981555 131.169729,13.3785431 L133.822041,13.3785431 L133.822041,14.1725203 L132.424683,14.1725203 L132.424683,14.1725154 Z M128.947269,21.0499293 C128.135523,21.5431081 127.722492,22.1939624 127.722492,22.8784464 C127.722492,23.9893228 128.675929,24.5773213 130.121119,24.5773213 C131.963712,24.5773213 132.900808,23.7665287 132.900808,22.6546991 C132.900808,21.7500411 132.329271,21.1785039 130.787835,21.131032 L129.406932,21.0834435 C129.231725,21.0834435 129.089914,21.0666265 128.947268,21.0502866 L128.947269,21.0499293 Z M130.058144,14.0295037 C128.786855,14.0295037 128.040464,14.8877682 128.040464,16.0469445 C128.040464,17.2067199 128.786849,18.0655782 130.058144,18.0655782 C131.328241,18.0655782 132.074632,17.2067199 132.074632,16.0469445 C132.074632,14.8877682 131.328246,14.0295037 130.058144,14.0295037 L130.058144,14.0295037 Z" id="Shape"></path>
                    <path d="M37.5360146,21.2881333 C37.5360146,20.8927554 37.5680981,20.3835952 37.6310724,19.9538692 L37.5995853,19.9538692 C37.1871518,20.8275165 36.3138607,21.4489115 35.1061394,21.4489115 C33.1838767,21.4489115 32.2313927,20.0026539 32.2313927,17.7467911 C32.2313927,15.0783772 33.7871436,13.2354306 36.408919,13.2354306 C36.7422767,13.2354306 37.0595326,13.2515319 37.4089948,13.2991203 L37.4089948,11.2344472 C37.0280486,11.1707575 36.4879954,11.107187 36.027019,11.0756997 L36.027019,9.80393079 C37.028048,9.67726702 38.2663006,9.62979779 39.4264356,9.66128452 L39.4264356,19.7156967 C39.8076204,19.7799829 40.332646,19.8442692 40.7295747,19.8750407 L40.7295747,21.1454969 C39.807622,21.2740693 38.5852315,21.3216578 37.536017,21.2881431 L37.5360146,21.2881333 Z M37.4089953,14.967483 C37.0441504,14.8878113 36.6946936,14.8402227 36.3453513,14.8402227 C35.1852163,14.8402227 34.3597545,15.5705064 34.3597545,17.5240194 C34.3597545,19.0023608 34.7881699,19.763301 35.7091672,19.763301 C36.774124,19.763301 37.4089953,18.5262414 37.4089953,17.174323 L37.4089953,14.9674846 L37.4089953,14.967483 Z" id="Shape"></path>
                    <path d="M46.0178333,21.3846569 C45.6365293,21.3846569 45.3337034,21.3692712 45.0003485,21.3216829 L45.0003485,23.9205639 C45.4768296,23.9518125 45.970247,24.0314843 46.382918,24.1112753 L46.3832758,25.3979531 L41.6971814,25.3979531 L41.6971814,24.1112753 C42.1102113,24.0314843 42.5065414,23.951812 42.98326,23.9205639 L42.98326,14.9354281 C42.6017173,14.8717383 42.1416964,14.8080486 41.6971814,14.7765613 L41.6971814,13.5052717 C42.6654076,13.3786079 43.8415246,13.3310194 44.8737985,13.3625061 C44.8737985,13.7434523 44.8415958,14.2844588 44.7786214,14.6974893 L44.8101085,14.6974893 C45.2559374,13.7764899 46.0969062,13.219502 47.3035544,13.219502 C49.1622488,13.219502 50.1793741,14.5702274 50.1793741,16.9039682 C50.1793741,19.6526513 48.749812,21.3846776 46.0178298,21.3846776 L46.0178333,21.3846569 Z M46.7005271,14.8878565 C45.6365236,14.8878565 45.000345,16.1270623 45.000345,17.4764805 L45.000345,19.669129 C45.3179593,19.7645446 45.6529849,19.8121331 46.0654216,19.8121331 C47.2242438,19.8121331 48.0510184,19.0811305 48.0510184,17.1277373 C48.0510184,15.6509429 47.6211714,14.8878619 46.7005326,14.8878619 L46.7005271,14.8878565 Z" id="Shape"></path>
                    <path d="M57.7496423,21.2881333 C57.7496423,20.9240041 57.7657436,20.3202611 57.8448193,19.8763398 L57.813213,19.858688 C57.352595,20.7967424 56.4306435,21.4489084 55.1449189,21.4489084 C53.3499181,21.4489084 52.7783754,20.3048753 52.7783754,18.921712 L52.7783754,14.9350159 C52.3968327,14.8722805 51.8718109,14.8079943 51.4119077,14.7772227 L51.4119077,13.5058133 C52.45945,13.3778373 53.7147576,13.3303681 54.8115585,13.3628092 L54.8115585,18.4302044 C54.8115585,19.2549526 55.0336379,19.7487262 55.7800244,19.7487262 C56.8128975,19.7487262 57.6229765,18.572849 57.6229765,17.1912327 L57.6229765,13.3778324 L59.6400578,13.3778324 L59.6400578,19.7157056 C60.021004,19.7811842 60.5606978,19.844278 61.0226274,19.8763612 L61.0226274,21.1455047 C60.0210046,21.2727649 58.7984943,21.3203534 57.7496392,21.2881509 L57.7496423,21.2881333 Z" id="Shape"></path>
                    <path d="M84.4042033,21.4309033 C82.6564293,21.4309033 82.1169758,20.7967455 82.1169758,18.9537989 L82.1169758,14.9504018 L80.750508,14.9504018 L80.750508,13.3778355 L82.1169758,13.3778355 L82.1169758,10.948677 L84.1338228,10.4076711 L84.1338228,13.3778355 L86.0560855,13.3778355 L86.0560855,14.9504018 L84.1338228,14.9504018 L84.1338228,18.4144598 C84.1338228,19.4299183 84.3716462,19.7156869 85.0718773,19.7156869 C85.4051157,19.7156869 85.7063891,19.6847962 85.9764154,19.6060782 L86.1194196,21.2107282 C85.6112132,21.3357224 84.9600037,21.4308994 84.4042087,21.4308994 L84.4042033,21.4309033 Z" id="Shape"></path>
                    <path d="M79.1106585,19.781178 L76.9833704,16.9843148 L79.7629444,13.3778464 L77.2845272,13.3778464 L74.9822711,16.6663426 L74.9822711,9.66190114 C73.8060343,9.63041403 72.5832898,9.67800249 71.5661589,9.8046667 L71.5661589,11.075003 C72.0261809,11.1074443 72.5656355,11.1701801 72.9487285,11.2350622 L72.9487285,21.2727517 L74.9822711,21.2727517 L74.9822711,17.6647363 L77.6011867,21.2727517 L80.2389494,21.2727517 L80.2389494,19.9538703 C79.8571682,19.8763453 79.459527,19.8107468 79.110664,19.7811682 L79.1106585,19.781178 Z" id="Shape"></path>
                    <path d="M70.0939837,19.781178 L70.0939837,15.729955 C70.0939837,14.3473854 69.5218473,13.204665 67.7429483,13.204665 C66.4561507,13.204665 65.5351512,13.8552786 65.0584326,14.7920203 L65.0430468,14.775919 C65.1221226,14.3634855 65.1536094,13.7443586 65.1536094,13.3628182 C64.0899653,13.331331 62.8668558,13.379158 61.865233,13.5058223 L61.865233,14.775919 C62.3258509,14.8080024 62.8668558,14.8713346 63.2476827,14.9359782 L63.2476827,21.2727619 L65.2648838,21.2727619 L65.2648838,17.4616276 C65.2648838,16.0786986 66.0746034,14.9035404 67.1077161,14.9035404 C67.8541016,14.9035404 68.0763019,15.396242 68.0763019,16.2218225 L68.0730816,21.2727619 L68.0763019,21.2727619 L70.0939824,21.2727619 L71.3763678,21.2727619 L71.3763678,19.9869175 C71.0121193,19.8918598 70.5530522,19.8130225 70.0939824,19.7811779 L70.0939837,19.781178 Z" id="Shape"></path>
                    <polygon id="Shape" points="16.7430821 3.69675496 20.352748 3.6954422 20.351822 28.5616642 8.59435691 28.5616642 8.59435691 32.1433317 23.9748333 32.145565 23.9748333 0 16.7421016 0"></polygon>
                    <polygon id="Shape" points="0.144022764 10.4382187 0.14494878 24.2796561 3.8056 24.2796561 3.80461951 14.1526333 15.6016854 14.1526333 15.6016854 10.4382187"></polygon>
                    <polygon id="Shape" points="8.5945748 17.1912195 15.6016854 17.1912195 15.6016854 24.2783488 8.5945748 24.2783488"></polygon>
                </g>
            </g>
        </g>
    </g>
</svg>