<svg width="47" height="37" xmlns="http://www.w3.org/2000/svg"><path d="M42.691 1.926c-.12-.51-.45-.945-.99-1.305s-1.139-.54-1.799-.54H6.8c-.66 0-1.26.18-1.8.54-.539.36-.869.795-.989 1.305l-.495 2.743h39.67l-.494-2.743zm2.339 5.037H1.67c-.39 0-.72.15-.99.45-.269.3-.374.645-.314 1.034L2.481 35.3c.03.45.217.832.562 1.147.345.315.742.472 1.192.472h38.231c.45 0 .847-.157 1.192-.472.345-.315.532-.697.562-1.147l2.114-26.852c.06-.39-.045-.734-.315-1.034-.27-.3-.6-.45-.99-.45zm-16.057 7.781c.6 0 1.11.21 1.53.63.419.42.629.93.629 1.53 0 .599-.21 1.109-.63 1.529-.42.42-.93.63-1.53.63-.599 0-1.109-.21-1.528-.63-.42-.42-.63-.93-.63-1.53s.21-1.11.63-1.529c.42-.42.93-.63 1.529-.63zM13.006 27.698l5.712-13.179 6.522 10.57 5.577-2.788 2.879 5.397h-20.69z" fill="#585858" fill-rule="evenodd"/></svg>