<svg width="41" height="41" xmlns="http://www.w3.org/2000/svg"><path d="M6.945 8.062l.967.969-3.956 3.965 3.077 3.083 3.956-4.009.923.926-4 3.964L10.99 20 20 10.97 9.011 0 0 9.03l2.989 2.996 3.956-3.964zM30.031 21L21 30.011l3.04 3.077 3.964-4 .926.923-4.01 3.956 3.128 3.077 3.921-3.956.97.967-3.965 3.956L31.969 41 41 31.989 30.03 21zm9.183-10.127c.524-.536.786-1.199.786-1.988 0-.79-.248-1.467-.745-2.033L34.58 1.85C34.083 1.283 33.47 1 32.738 1c-.731 0-1.359.283-1.883.849L28 4.976 36.359 14l2.855-3.127zM3 34.348L6.652 38 14 35.391 5.609 27 3 34.348zM26.313 5L6 25.343 14.687 34 35 13.7 26.313 5zM10 25.077L26.037 9l.963.923L10.921 26 10 25.077zm2 2.002L28.077 11l.923.963L12.923 28 12 27.079zm2 1.958L30.079 13l.921.921L14.963 30 14 29.037zM1 40l4-1.429L2.429 36 1 40z" fill="#585858" fill-rule="evenodd"/></svg>