<svg width="1248" height="327" xmlns="http://www.w3.org/2000/svg"><g stroke="#7F7F7F" fill="none" fill-rule="evenodd" opacity=".15"><path d="M470-24l185 693M220-24l185 693M-30-24l185 693M721-24l185 693M971-24l185 693M1221-24l185 693M540-24l685 689M882-24l685 689M199-24l685 689M-143-24l685 689M-484-24l685 689M1310.447 117L-141.131 506.13M1310.447-135L-141.131 254.13M387-25L199 673M135-25L-53 673M637-25L449 673M888-25L700 673M1138-25L950 673M650-25L-62 686M304-25l-712 711M991-25L279 686M1335-25L623 686M1303 330L-56-36M1303 581L-56 215"/></g></svg>
