<svg width="1267" height="628" xmlns="http://www.w3.org/2000/svg"><g stroke="#FFF" fill="none" fill-rule="evenodd" stroke-opacity=".1"><path d="M461-51l185 693M211-51l185 693M-39-51l185 693M712-51l185 693M962-51l185 693M1212-51l185 693M531-51l685 689M873-51l685 689M190-51l685 689M-152-51l685 689M-493-51l685 689M1302 593l-178 47M1301.447 342L-150.131 731.13M1301.447 90L-150.131 479.13M1301.447-162L-150.131 227.13M378-52L190 646M126-52L-62 646M628-52L440 646M879-52L691 646M1129-52L941 646M641-52L-71 659M295-52l-712 711M982-52L270 659M1326-52L614 659M1294 303L-65-63M1294 554L-65 188M1294 804L-65 438"/></g></svg>