<?xml version="1.0" encoding="UTF-8"?>
<svg width="22px" height="17px" viewBox="0 0 22 17" version="1.1" xmlns="http://www.w3.org/2000/svg" xmlns:xlink="http://www.w3.org/1999/xlink">
    <!-- Generator: Sketch 42 (36781) - http://www.bohemiancoding.com/sketch -->
    <title>Page 1</title>
    <desc>Created with Sketch.</desc>
    <defs></defs>
    <g id="start" stroke="none" stroke-width="1" fill="none" fill-rule="evenodd">
        <g transform="translate(-748.000000, -2493.000000)" id="Page-1" fill="#3577CB">
            <path d="M762.666667,2502.16666 C762.666667,2502.05972 762.632291,2501.97188 762.563541,2501.90312 C762.49479,2501.83437 762.406943,2501.8 762.3,2501.8 L759.733334,2501.8 L759.733334,2497.76667 C759.733334,2497.66736 759.697049,2497.58142 759.624479,2497.50885 C759.551909,2497.43628 759.465972,2497.4 759.366665,2497.4 L757.166667,2497.4 C757.06736,2497.4 756.981423,2497.43628 756.908853,2497.50885 C756.836283,2497.58142 756.799998,2497.66736 756.799998,2497.76667 L756.799998,2501.8 L754.233332,2501.8 C754.134028,2501.8 754.04809,2501.83628 753.975521,2501.90885 C753.902951,2501.98142 753.866666,2502.06736 753.866666,2502.16666 C753.866666,2502.27361 753.901041,2502.36146 753.969792,2502.43021 L758.003123,2506.46354 C758.071874,2506.53229 758.159721,2506.56667 758.266666,2506.56667 C758.373611,2506.56667 758.461458,2506.53229 758.530209,2506.46354 L762.552083,2502.44167 C762.628472,2502.35 762.666667,2502.25833 762.666667,2502.16666 Z M770,2504.73333 C770,2505.94792 769.570317,2506.98489 768.710935,2507.84427 C767.851556,2508.70365 766.81459,2509.13333 765.599999,2509.13333 L753.133333,2509.13333 C751.720132,2509.13333 750.51129,2508.63108 749.506771,2507.62656 C748.502252,2506.62204 748,2505.4132 748,2504 C748,2503.00694 748.267358,2502.09028 748.802083,2501.25 C749.336808,2500.40972 750.054857,2499.77952 750.956251,2499.35937 C750.940971,2499.13021 750.933333,2498.96597 750.933333,2498.86667 C750.933333,2497.24721 751.506244,2495.86459 752.652083,2494.71875 C753.797923,2493.57291 755.180547,2493 756.799998,2493 C757.991671,2493 759.082112,2493.33229 760.071354,2493.99688 C761.060596,2494.66146 761.780553,2495.54374 762.23125,2496.64375 C762.773612,2496.17014 763.407635,2495.93333 764.133332,2495.93333 C764.943059,2495.93333 765.634372,2496.21979 766.207291,2496.79271 C766.780209,2497.36563 767.066665,2498.05694 767.066665,2498.86667 C767.066665,2499.44723 766.91007,2499.9743 766.596875,2500.44791 C767.589933,2500.68472 768.405379,2501.20225 769.043229,2502.00052 C769.681079,2502.79879 770,2503.70972 770,2504.73333 Z"></path>
        </g>
    </g>
</svg>