<svg width="10" height="13" xmlns="http://www.w3.org/2000/svg"><path d="M2.867 5.955h4.266V4.318c0-.602-.208-1.116-.625-1.542A2.033 2.033 0 0 0 5 2.136c-.589 0-1.092.213-1.508.64-.417.426-.625.94-.625 1.542v1.637zm6.933.818v4.909c0 .227-.078.42-.233.58A.763.763 0 0 1 9 12.5H1a.763.763 0 0 1-.567-.239.798.798 0 0 1-.233-.58V6.774c0-.228.078-.42.233-.58A.763.763 0 0 1 1 5.955h.267V4.318c0-1.045.366-1.943 1.1-2.693C3.1.875 3.977.5 5 .5c1.022 0 1.9.375 2.633 1.125.734.75 1.1 1.648 1.1 2.693v1.637H9c.222 0 .411.08.567.238.155.16.233.352.233.58z" fill="#7F7F7F" fill-rule="evenodd"/></svg>