<svg width="636" height="325" xmlns="http://www.w3.org/2000/svg" xmlns:xlink="http://www.w3.org/1999/xlink"><defs><rect id="a" x="172.159" y="1.123" width="39.147" height="57.139" rx="8"/><mask id="k" x="0" y="0" width="39.147" height="57.139" fill="#fff"><use xlink:href="#a"/></mask><rect id="b" x="75.971" y="6.151" width="39.147" height="57.139" rx="8"/><mask id="l" x="0" y="0" width="39.147" height="57.139" fill="#fff"><use xlink:href="#b"/></mask><rect id="c" x="60.227" y="1.203" width="13.25" height="19.241" rx="6.625"/><mask id="m" x="0" y="0" width="13.25" height="19.241" fill="#fff"><use xlink:href="#c"/></mask><rect id="d" x="26.5" y="2.405" width="13.25" height="19.241" rx="6.625"/><mask id="n" x="0" y="0" width="13.25" height="19.241" fill="#fff"><use xlink:href="#d"/></mask><rect id="e" x="41.897" y=".837" width="9.217" height="13.385" rx="4.609"/><mask id="o" x="0" y="0" width="9.217" height="13.385" fill="#fff"><use xlink:href="#e"/></mask><rect id="f" x="18.435" y="1.673" width="9.217" height="13.385" rx="4.609"/><mask id="p" x="0" y="0" width="9.217" height="13.385" fill="#fff"><use xlink:href="#f"/></mask><linearGradient x1="52.535%" y1="-39.489%" x2="52.535%" y2="92.656%" id="q"><stop stop-color="#3577CB" offset="0%"/><stop stop-color="#C30023" offset="100%"/></linearGradient><rect id="g" x="95" y="9" width="18" height="26" rx="8"/><mask id="r" x="0" y="0" width="18" height="26" fill="#fff"><use xlink:href="#g"/></mask><rect id="h" x="51" y="2" width="18" height="26" rx="8"/><mask id="s" x="0" y="0" width="18" height="26" fill="#fff"><use xlink:href="#h"/></mask><rect id="i" x="36.408" y="3.449" width="6.898" height="9.964" rx="3.449"/><mask id="t" x="0" y="0" width="6.898" height="9.964" fill="#fff"><use xlink:href="#i"/></mask><rect id="j" x="19.545" y=".766" width="6.898" height="9.964" rx="3.449"/><mask id="u" x="0" y="0" width="6.898" height="9.964" fill="#fff"><use xlink:href="#j"/></mask></defs><g fill="none" fill-rule="evenodd"><g stroke="#FFF"><g opacity=".402" transform="translate(345)"><path d="M245.845 137.87c1.53 21.866-32.017 78.884-93.043 83.151-61.638 4.31-102.237-48.335-103.71-69.393l196.753-13.759zm-90.092 125.35c79.694-5.573 139.826-74.063 134.308-152.976l-1.102-15.764L.36 114.661l1.102 15.763C6.98 209.338 76.06 268.793 155.753 263.22z"/><use mask="url(#k)" stroke-width="2" transform="rotate(-3 191.732 29.693)" xlink:href="#a"/><use mask="url(#l)" stroke-width="2" transform="rotate(-3 95.544 34.72)" xlink:href="#b"/></g><g opacity=".623" transform="rotate(11 -566.336 1575.041)"><path d="M86.454 47.712c.532 7.606-11.208 27.443-32.551 28.935-21.558 1.508-35.75-16.798-36.262-24.123l68.813-4.812zM54.93 91.325c27.873-1.949 48.912-25.78 46.993-53.228l-.384-5.483L.603 39.672l.383 5.483c1.92 27.448 26.07 48.12 53.943 46.17z"/><use mask="url(#m)" stroke-width="2" transform="rotate(-3 66.852 10.823)" xlink:href="#c"/><use mask="url(#n)" stroke-width="2" transform="rotate(-3 33.125 12.025)" xlink:href="#d"/></g><g opacity=".623" transform="rotate(167 123.028 134.2)"><path d="M60.142 33.191c.37 5.29-7.797 19.09-22.644 20.129-14.997 1.048-24.87-11.686-25.226-16.782l47.87-3.347zm-21.93 30.34c19.39-1.357 34.025-17.935 32.69-37.029l-.267-3.814L.42 27.598l.267 3.814C2.021 50.506 18.822 64.886 38.212 63.53z"/><use mask="url(#o)" stroke-width="2" transform="rotate(-3 46.506 7.529)" xlink:href="#e"/><use mask="url(#p)" stroke-width="2" transform="rotate(-3 23.043 8.365)" xlink:href="#f"/></g></g><g opacity=".403" transform="rotate(-12 1043.74 -29.78)" stroke="url(#q)"><path d="M121.239 75.526c-1.243 10.124-21.806 33.166-50.35 29.662-28.83-3.54-42.874-31.212-41.677-40.961l92.027 11.3zm-52.748 49.198c37.275 4.577 71.13-21.33 75.615-57.863l.896-7.298L10.016 42.989l-.896 7.297c-4.486 36.534 22.095 69.861 59.37 74.438z"/><use mask="url(#r)" stroke-width="2" transform="rotate(8 104 22)" xlink:href="#g"/><use mask="url(#s)" stroke-width="2" transform="rotate(8 60 15)" xlink:href="#h"/></g><g opacity=".454" transform="rotate(-19 731.712 147.019)" stroke="url(#q)"><path d="M46.464 28.945c-.477 3.88-8.357 12.71-19.296 11.367-11.05-1.357-16.432-11.961-15.973-15.698l35.269 4.33zM26.248 47.799c14.286 1.754 27.26-8.174 28.98-22.175l.343-2.797-51.732-6.352-.344 2.797c-1.719 14.001 8.468 26.773 22.753 28.527z"/><use mask="url(#t)" stroke-width="2" transform="rotate(8 39.857 8.431)" xlink:href="#i"/><use mask="url(#u)" stroke-width="2" transform="rotate(8 22.994 5.749)" xlink:href="#j"/></g></g></svg>