<svg width="12" height="13" xmlns="http://www.w3.org/2000/svg"><path d="M.923 12h10.154V4.615H.923V12zm2.77-8.77V1.155a.225.225 0 0 0-.066-.166.225.225 0 0 0-.165-.065H3a.225.225 0 0 0-.166.065.225.225 0 0 0-.065.166V3.23c0 .067.022.122.065.166A.225.225 0 0 0 3 3.462h.462a.225.225 0 0 0 .165-.065.225.225 0 0 0 .065-.166zm5.538 0V1.155a.225.225 0 0 0-.065-.166A.225.225 0 0 0 9 .923h-.462a.225.225 0 0 0-.165.065.225.225 0 0 0-.065.166V3.23c0 .067.021.122.065.166a.225.225 0 0 0 .165.065H9a.225.225 0 0 0 .166-.065.225.225 0 0 0 .065-.166zM12 2.77V12c0 .25-.091.466-.274.649a.887.887 0 0 1-.65.274H.924a.887.887 0 0 1-.649-.274A.887.887 0 0 1 0 12V2.77c0-.25.091-.467.274-.65a.887.887 0 0 1 .65-.274h.922v-.692c0-.317.113-.59.34-.815C2.41.113 2.682 0 3 0h.462c.317 0 .588.113.814.339.226.226.34.498.34.815v.692h2.769v-.692c0-.317.113-.59.339-.815C7.95.113 8.22 0 8.538 0H9c.317 0 .589.113.815.339.226.226.339.498.339.815v.692h.923c.25 0 .466.091.649.274a.887.887 0 0 1 .274.65z" fill="#3577CB" fill-rule="evenodd"/></svg>