<svg width="310" height="244" xmlns="http://www.w3.org/2000/svg"><path d="M66.429 182.679v11.071c0 1.5-.548 2.797-1.644 3.892-1.095 1.096-2.393 1.644-3.892 1.644H49.82c-1.499 0-2.796-.548-3.892-1.644-1.095-1.095-1.643-2.393-1.643-3.892v-11.071c0-1.5.548-2.797 1.643-3.893 1.096-1.095 2.393-1.643 3.892-1.643h11.072c1.5 0 2.797.548 3.892 1.643 1.096 1.096 1.644 2.393 1.644 3.893zm0-44.286v11.071c0 1.5-.548 2.797-1.644 3.893-1.095 1.095-2.393 1.643-3.892 1.643H49.82c-1.499 0-2.796-.548-3.892-1.643-1.095-1.096-1.643-2.393-1.643-3.893v-11.071c0-1.5.548-2.797 1.643-3.892 1.096-1.096 2.393-1.644 3.892-1.644h11.072c1.5 0 2.797.548 3.892 1.644 1.096 1.095 1.644 2.393 1.644 3.892zm0-44.286v11.072c0 1.499-.548 2.796-1.644 3.892-1.095 1.095-2.393 1.643-3.892 1.643H49.82c-1.499 0-2.796-.548-3.892-1.643-1.095-1.096-1.643-2.393-1.643-3.892V94.107c0-1.5.548-2.797 1.643-3.892 1.096-1.096 2.393-1.644 3.892-1.644h11.072c1.5 0 2.797.548 3.892 1.644 1.096 1.095 1.644 2.393 1.644 3.892zm199.285 88.572v11.071c0 1.5-.548 2.797-1.643 3.892-1.096 1.096-2.393 1.644-3.892 1.644H94.107c-1.5 0-2.797-.548-3.892-1.644-1.096-1.095-1.644-2.393-1.644-3.892v-11.071c0-1.5.548-2.797 1.644-3.893 1.095-1.095 2.393-1.643 3.892-1.643H260.18c1.499 0 2.796.548 3.892 1.643 1.095 1.096 1.643 2.393 1.643 3.893zm0-44.286v11.071c0 1.5-.548 2.797-1.643 3.893-1.096 1.095-2.393 1.643-3.892 1.643H94.107c-1.5 0-2.797-.548-3.892-1.643-1.096-1.096-1.644-2.393-1.644-3.893v-11.071c0-1.5.548-2.797 1.644-3.892 1.095-1.096 2.393-1.644 3.892-1.644H260.18c1.499 0 2.796.548 3.892 1.644 1.095 1.095 1.643 2.393 1.643 3.892zm0-44.286v11.072c0 1.499-.548 2.796-1.643 3.892-1.096 1.095-2.393 1.643-3.892 1.643H94.107c-1.5 0-2.797-.548-3.892-1.643-1.096-1.096-1.644-2.393-1.644-3.892V94.107c0-1.5.548-2.797 1.644-3.892 1.095-1.096 2.393-1.644 3.892-1.644H260.18c1.499 0 2.796.548 3.892 1.644 1.095 1.095 1.643 2.393 1.643 3.892zm22.143 121.786V71.964c0-1.499-.548-2.796-1.643-3.892-1.096-1.096-2.393-1.643-3.893-1.643H27.68c-1.5 0-2.797.547-3.893 1.643-1.095 1.096-1.643 2.393-1.643 3.892v143.929c0 1.5.548 2.797 1.643 3.892 1.096 1.096 2.393 1.644 3.893 1.644H282.32c1.5 0 2.797-.548 3.893-1.644 1.095-1.095 1.643-2.393 1.643-3.892zM310 27.679v188.214c0 7.611-2.71 14.127-8.13 19.548-5.421 5.42-11.937 8.13-19.549 8.13H27.68c-7.612 0-14.128-2.71-19.548-8.13C2.71 230.02 0 223.504 0 215.893V27.679C0 20.067 2.71 13.55 8.13 8.13 13.552 2.71 20.068 0 27.68 0H282.32c7.612 0 14.128 2.71 19.548 8.13C307.29 13.552 310 20.068 310 27.68z" fill="#EFEFEF" fill-rule="evenodd"/></svg>