<svg width="310" height="285" xmlns="http://www.w3.org/2000/svg"><path d="M285.526 0c6.922 0 12.732 2.225 17.429 6.675C307.652 11.125 310 16.81 310 23.732v212.105c0 6.922-2.348 12.855-7.045 17.8-4.697 4.944-10.507 7.416-17.429 7.416H179.474c-12.36 0-18.541 4.697-18.541 14.09v9.642h-11.866v-9.641c0-9.394-6.18-14.091-18.54-14.091H24.473c-6.922 0-12.732-2.472-17.429-7.417C2.348 248.692 0 242.76 0 235.837V23.732C0 16.81 2.348 11.124 7.045 6.675 11.742 2.225 17.552 0 24.474 0h111.244c7.91 0 14.338 2.966 19.282 8.9 4.944-5.934 11.372-8.9 19.282-8.9h111.244zM149.067 257.344V28.182c0-3.461-1.978-7.046-5.933-10.754-3.955-3.708-8.158-5.562-12.608-5.562H24.474c-7.911 0-11.866 3.955-11.866 11.866v212.105c0 3.461 1.112 6.551 3.337 9.27 2.225 2.72 5.068 4.08 8.529 4.08h106.794c8.405 0 14.338 2.719 17.799 8.157zm53.397-245.478v74.163l17.058-10.383 6.674-4.45 6.675 4.45 17.057 10.383V11.866h-47.464zm94.928 223.971V23.732c0-7.91-3.955-11.866-11.866-11.866h-23.732v97.153l-35.598-23.732-35.598 23.732V11.866h-11.124c-4.45 0-8.653 1.854-12.608 5.562s-5.933 7.293-5.933 10.754v229.162c2.967-5.438 8.9-8.157 17.8-8.157h106.793c3.461 0 6.304-1.36 8.529-4.08 2.225-2.719 3.337-5.809 3.337-9.27z" fill="#EFEFEF" fill-rule="evenodd"/></svg>