<?xml version="1.0" encoding="UTF-8"?>
<svg width="14px" height="12px" viewBox="0 0 14 12" version="1.1" xmlns="http://www.w3.org/2000/svg" xmlns:xlink="http://www.w3.org/1999/xlink">
    <!-- Generator: Sketch 42 (36781) - http://www.bohemiancoding.com/sketch -->
    <title>Page 1</title>
    <desc>Created with Sketch.</desc>
    <defs></defs>
    <g id="start" stroke="none" stroke-width="1" fill="none" fill-rule="evenodd">
        <g transform="translate(-1016.000000, -57.000000)" id="Page-1" fill="#3577CB">
            <path d="M1021.38462,67.7692308 C1021.38462,68.060899 1021.27805,68.3133003 1021.0649,68.5264424 C1020.85176,68.7395845 1020.59936,68.846154 1020.30769,68.846154 C1020.01603,68.846154 1019.76362,68.7395845 1019.55048,68.5264424 C1019.33734,68.3133003 1019.23077,68.060899 1019.23077,67.7692308 C1019.23077,67.4775626 1019.33734,67.2251613 1019.55048,67.0120192 C1019.76362,66.7988773 1020.01603,66.692308 1020.30769,66.692308 C1020.59936,66.692308 1020.85176,66.7988773 1021.0649,67.0120192 C1021.27805,67.2251613 1021.38462,67.4775626 1021.38462,67.7692308 Z M1028.92308,67.7692308 C1028.92308,68.060899 1028.81651,68.3133003 1028.60337,68.5264424 C1028.39022,68.7395845 1028.13782,68.846154 1027.84615,68.846154 C1027.55449,68.846154 1027.30208,68.7395845 1027.08894,68.5264424 C1026.8758,68.3133003 1026.76923,68.060899 1026.76923,67.7692308 C1026.76923,67.4775626 1026.8758,67.2251613 1027.08894,67.0120192 C1027.30208,66.7988773 1027.55449,66.692308 1027.84615,66.692308 C1028.13782,66.692308 1028.39022,66.7988773 1028.60337,67.0120192 C1028.81651,67.2251613 1028.92308,67.4775626 1028.92308,67.7692308 Z M1030,58.615385 L1030,62.923077 C1030,63.0576932 1029.95373,63.1768819 1029.86118,63.2806489 C1029.76863,63.3844158 1029.65505,63.4447122 1029.52043,63.461538 L1020.73678,64.4879807 C1020.8097,64.8245202 1020.84615,65.0208331 1020.84615,65.076923 C1020.84615,65.1666665 1020.77885,65.3461516 1020.64423,65.615384 L1028.38462,65.615384 C1028.53045,65.615384 1028.65665,65.6686697 1028.76322,65.7752409 C1028.86979,65.8818121 1028.92308,66.0080116 1028.92308,66.153847 C1028.92308,66.2996804 1028.86979,66.4258818 1028.76322,66.5324511 C1028.65665,66.6390224 1028.53045,66.692308 1028.38462,66.692308 L1019.76923,66.692308 C1019.6234,66.692308 1019.4972,66.6390224 1019.39062,66.5324511 C1019.28405,66.4258818 1019.23077,66.2996804 1019.23077,66.153847 C1019.23077,66.0921465 1019.2532,66.0038071 1019.29808,65.8888229 C1019.34295,65.7738369 1019.38782,65.6728761 1019.43269,65.5859369 C1019.47756,65.4989977 1019.53786,65.3868198 1019.61358,65.2493992 C1019.6893,65.1119787 1019.73277,65.029246 1019.74399,65.001201 L1018.25481,58.0769221 L1016.53846,58.0769221 C1016.39263,58.0769221 1016.26643,58.0236383 1016.15986,57.9170671 C1016.05328,57.8104959 1016,57.6842945 1016,57.538461 C1016,57.3926276 1016.05328,57.2664262 1016.15986,57.159855 C1016.26643,57.0532837 1016.39263,57 1016.53846,57 L1018.69231,57 C1018.78205,57 1018.86198,57.018228 1018.93209,57.0546878 C1019.0022,57.0911457 1019.05689,57.1346143 1019.09615,57.1850956 C1019.13542,57.2355769 1019.17188,57.3042862 1019.20553,57.3912254 C1019.23918,57.4781646 1019.26162,57.5510804 1019.27284,57.6099747 C1019.28406,57.6688708 1019.29948,57.7516016 1019.31911,57.8581729 C1019.33874,57.9647441 1019.35136,58.0376599 1019.35697,58.0769221 L1029.46154,58.0769221 C1029.60737,58.0769221 1029.73357,58.1302077 1029.84015,58.2367789 C1029.94672,58.3433502 1030,58.4695497 1030,58.615385 Z"></path>
        </g>
    </g>
</svg>